<?xml version="1.0" encoding="UTF-8" standalone="no"?>
<svg
   id="Layer_1"
   data-name="Layer 1"
   viewBox="0 0 425.2 170.08"
   version="1.1"
   sodipodi:docname="ltu_logo_en.svg"
   width="425.20001"
   height="170.08"
   inkscape:version="1.2.2 (b0a8486541, 2022-12-01)"
   xmlns:inkscape="http://www.inkscape.org/namespaces/inkscape"
   xmlns:sodipodi="http://sodipodi.sourceforge.net/DTD/sodipodi-0.dtd"
   xmlns="http://www.w3.org/2000/svg"
   xmlns:svg="http://www.w3.org/2000/svg"
   xmlns:rdf="http://www.w3.org/1999/02/22-rdf-syntax-ns#"
   xmlns:cc="http://creativecommons.org/ns#"
   xmlns:dc="http://purl.org/dc/elements/1.1/">
  <sodipodi:namedview
     id="namedview306"
     pagecolor="#ffffff"
     bordercolor="#000000"
     borderopacity="0.25"
     inkscape:showpageshadow="2"
     inkscape:pageopacity="0.0"
     inkscape:pagecheckerboard="0"
     inkscape:deskcolor="#d1d1d1"
     showgrid="false"
     inkscape:zoom="1.9577677"
     inkscape:cx="197.41872"
     inkscape:cy="103.68952"
     inkscape:window-width="1904"
     inkscape:window-height="1025"
     inkscape:window-x="4"
     inkscape:window-y="4"
     inkscape:window-maximized="1"
     inkscape:current-layer="Layer_1" />
  <defs
     id="defs241">
    <style
       id="style236">.cls-1{fill:none;}.cls-2{fill:#fff;}.cls-3{clip-path:url(#clip-path);}</style>
    <clipPath
       id="clip-path">
      <rect
         class="cls-1"
         x="47.720001"
         y="3.8800001"
         width="329.70001"
         height="162.33"
         id="rect238" />
    </clipPath>
  </defs>
  <title
     id="title243">ltu_logo_eng</title>
  <path
     class="cls-2"
     d="m 176.45,107.47 h -11.3 V 107 H 166 c 1.16,0 1.59,-0.38 1.59,-1.67 v -11.2 c 0,-1.34 -0.4,-1.9 -2,-1.9 h -0.35 v -0.48 h 7.46 v 0.48 h -0.93 c -1.64,0 -2.07,0.18 -2.07,1.74 v 11.65 a 0.82,0.82 0 0 0 1,0.93 h 3.71 c 1.49,0 1.95,-0.58 3.54,-2.78 h 0.46 l -1.95,3.69 v 0 z"
     id="path245"
     style="fill:#05325a;fill-opacity:1" />
  <path
     class="cls-2"
     d="m 200.83,91.75 v 0.48 c -1.69,0 -2.3,0.71 -2.3,2.33 v 6.82 c 0,3.13 -2,6.49 -7.48,6.49 -4.83,0 -7.3,-2.75 -7.3,-6.37 v -7.37 c 0,-1.62 -0.46,-1.87 -2.18,-1.9 v -0.48 h 6.5 v 0.48 h -0.23 c -1.39,0 -2,0.38 -2,1.84 v 7 c 0,3.41 2,5.46 5.76,5.46 2.86,0 5.76,-1.19 5.76,-5.48 v -5.86 c 0,-2.43 -0.38,-2.86 -2.48,-3 v -0.44 h 5.94 z"
     id="path247"
     style="fill:#05325a;fill-opacity:1" />
  <path
     class="cls-2"
     d="M 215,107.47 H 203.7 V 107 h 0.83 c 1.16,0 1.59,-0.38 1.59,-1.67 v -11.2 c 0,-1.34 -0.41,-1.9 -2,-1.9 h -0.35 v -0.48 h 7.46 v 0.48 h -0.94 c -1.64,0 -2.07,0.18 -2.07,1.74 v 11.65 a 0.82,0.82 0 0 0 1,0.93 h 3.72 c 1.49,0 1.95,-0.58 3.54,-2.78 h 0.45 z"
     id="path249"
     style="fill:#05325a;fill-opacity:1" />
  <path
     class="cls-2"
     d="m 231.36,101.79 h -0.48 c -0.2,-1.8 -0.68,-2 -1.72,-2 h -4.27 v 5.38 c 0,1.16 0.43,1.39 1.36,1.39 h 3.89 c 1.77,0 2.3,-0.68 2.93,-2.86 h 0.45 l -0.4,3.76 H 219.7 V 107 h 0.71 c 2,0 2.37,-0.56 2.37,-2.07 V 94.26 c 0,-1.42 -0.33,-2 -2,-2 h -0.56 v -0.51 h 12.13 l 0.2,3.51 h -0.45 c -0.33,-2.15 -1,-2.6 -1.87,-2.6 h -5.33 v 6.22 h 4.52 c 0.91,0 1.34,-0.43 1.47,-1.9 h 0.48 v 4.8 0 z"
     id="path251"
     style="fill:#05325a;fill-opacity:1" />
  <path
     class="cls-2"
     d="m 245.71,93.5 -2.15,5.89 h 4.37 z m -2.58,7 -1.47,4 a 7.17,7.17 0 0 0 -0.5,1.59 c 0,0.68 0.66,0.94 2,0.94 h 0.4 v 0.48 h -5.84 V 107 c 1.64,0 1.92,-0.3 2.73,-2.5 l 4.6,-12.56 -0.23,-0.56 h 2.2 l 5.28,14 a 2,2 0 0 0 2.3,1.59 v 0.48 h -6.95 V 107 h 0.66 c 1.44,0 2,-0.15 2,-0.86 a 2.82,2.82 0 0 0 -0.28,-1 l -1.69,-4.6 h -5.23 z"
     id="path253"
     style="fill:#05325a;fill-opacity:1" />
  <path
     class="cls-2"
     d="m 67,120.91 v 0.48 c -1.69,0 -2.3,0.71 -2.3,2.33 v 6.82 c 0,3.13 -2,6.49 -7.48,6.49 -4.83,0 -7.31,-2.75 -7.31,-6.37 v -7.38 c 0,-1.62 -0.45,-1.87 -2.17,-1.9 v -0.48 h 6.5 v 0.48 H 54 c -1.39,0 -2,0.38 -2,1.85 v 7 c 0,3.41 2,5.46 5.76,5.46 2.86,0 5.76,-1.19 5.76,-5.48 v -5.89 c 0,-2.42 -0.38,-2.86 -2.48,-3 v -0.48 H 67 Z"
     id="path255"
     style="fill:#05325a;fill-opacity:1" />
  <path
     class="cls-2"
     d="M 87.48,136.81 74.39,123.11 V 134 c 0,1.82 0.4,2.2 2.55,2.2 v 0.48 h -5.86 v -0.48 h 0.1 c 1.57,0 2.07,-0.53 2.07,-1.69 V 122 a 3.71,3.71 0 0 0 -2.12,-0.63 v -0.48 h 4 L 87,133.33 v -10.06 c 0,-1.54 -0.46,-1.82 -2.48,-1.87 v -0.48 h 5.91 v 0.48 c -1.9,0 -2.3,0.33 -2.3,1.31 v 14.1 z"
     id="path257"
     style="fill:#05325a;fill-opacity:1" />
  <path
     class="cls-2"
     d="m 101.69,136.64 h -6.15 v -0.48 c 1.57,-0.08 1.9,-0.48 1.9,-2.17 v -10.77 c 0,-1.36 -0.48,-1.74 -1.9,-1.82 v -0.48 h 6.14 v 0.48 c -1.59,0 -2.15,0.36 -2.15,2 v 10.72 c 0,1.49 0.41,2 2.15,2 v 0.48 0 z"
     id="path259"
     style="fill:#05325a;fill-opacity:1" />
  <path
     class="cls-2"
     d="m 114.92,137 -5.48,-13.67 c -0.63,-1.59 -0.94,-2 -2.48,-2 v -0.48 h 7 v 0.48 c -2.33,0.05 -2.88,0.58 -2.4,1.74 l 4.55,11.32 4,-10.44 a 4.89,4.89 0 0 0 0.43,-1.57 c 0,-0.76 -0.63,-1.06 -2.35,-1.06 v -0.48 H 124 v 0.48 c -1.32,0 -2,0.61 -2.6,2.17 L 116.19,137 h -1.26 z"
     id="path261"
     style="fill:#05325a;fill-opacity:1" />
  <path
     class="cls-2"
     d="m 139,130.95 h -0.48 c -0.2,-1.8 -0.68,-2 -1.72,-2 h -4.27 v 5.38 c 0,1.16 0.43,1.39 1.36,1.39 h 3.89 c 1.77,0 2.3,-0.68 2.93,-2.85 h 0.46 l -0.4,3.76 h -13.41 v -0.48 h 0.71 c 2,0 2.38,-0.56 2.38,-2.07 v -10.66 c 0,-1.42 -0.33,-2 -2,-2 h -0.55 v -0.48 H 140 l 0.2,3.51 h -0.46 c -0.33,-2.15 -1,-2.6 -1.87,-2.6 h -5.33 V 128 h 4.52 c 0.91,0 1.34,-0.43 1.47,-1.9 H 139 v 4.8 0 z"
     id="path263"
     style="fill:#05325a;fill-opacity:1" />
  <path
     class="cls-2"
     d="m 150.87,129.51 a 10.92,10.92 0 0 0 1.57,0.05 c 2.81,0 4.65,-1.19 4.65,-4.22 0,-2.35 -1.06,-4.17 -5,-4.17 a 10.25,10.25 0 0 0 -1.26,0.05 v 8.29 0 z m 0,4.75 c 0,1.52 0.61,1.9 2,1.9 h 0.58 v 0.48 h -7.15 v -0.48 h 0.43 c 1.49,0 2,-0.41 2,-2.1 v -10.64 c 0,-1.57 -0.43,-2 -1.89,-2 h -0.56 v -0.48 c 0.61,0 2.15,-0.1 3.18,-0.15 1.03,-0.05 1.54,-0.08 3.19,-0.08 4.68,0 6.77,1.92 6.77,4.5 a 4.31,4.31 0 0 1 -3.36,4.09 30.28,30.28 0 0 1 2.88,2.63 l 2,2 a 7.59,7.59 0 0 0 5,2.55 v 0.45 c -4.42,0.2 -5.56,-0.76 -7.81,-3 l -1.67,-1.67 a 18.67,18.67 0 0 0 -2.6,-2.25 c -0.63,0 -1,0.05 -1.72,0.05 -0.72,0 -0.88,0 -1.29,-0.05 v 4.27 0 z"
     id="path265"
     style="fill:#05325a;fill-opacity:1" />
  <path
     class="cls-2"
     d="m 168.2,132.79 a 4.38,4.38 0 0 0 4.27,3.57 c 1.69,0 3.49,-1 3.49,-3 0,-3.64 -8.11,-4.75 -8.11,-9.18 0,-2.1 1.92,-3.66 4.5,-3.66 2.12,0 2.55,0.63 3.44,0.63 a 0.49,0.49 0 0 0 0.46,-0.25 h 0.4 l 0.43,3.21 h -0.43 a 4.47,4.47 0 0 0 -4.07,-3 c -1.67,0 -2.83,1 -2.83,2.38 0,3.59 8.11,4.55 8.11,9.2 0,2.48 -2.2,4.32 -5.16,4.32 a 20.7,20.7 0 0 1 -3.51,-0.68 0.61,0.61 0 0 0 -0.51,0.28 h -0.43 l -0.53,-3.84 h 0.48 z"
     id="path267"
     style="fill:#05325a;fill-opacity:1" />
  <path
     class="cls-2"
     d="m 190.31,136.64 h -6.14 v -0.48 c 1.57,-0.08 1.9,-0.48 1.9,-2.17 v -10.77 c 0,-1.36 -0.48,-1.74 -1.9,-1.82 v -0.48 h 6.14 v 0.48 c -1.59,0 -2.15,0.36 -2.15,2 v 10.72 c 0,1.49 0.4,2 2.15,2 v 0.48 0 z"
     id="path269"
     style="fill:#05325a;fill-opacity:1" />
  <path
     class="cls-2"
     d="m 203.58,134.31 c 0,1.37 0.45,1.85 2,1.85 h 0.94 v 0.48 h -8 v -0.48 h 0.93 c 1.54,0 2,-0.48 2,-1.85 v -12.48 h -4.4 c -1,0 -1.47,0.58 -1.85,2.8 h -0.46 l 0.41,-4.09 h 0.48 a 0.38,0.38 0 0 0 0.28,0.3 1.68,1.68 0 0 0 0.51,0.07 h 12.16 a 0.69,0.69 0 0 0 0.78,-0.38 h 0.48 l 0.4,4.09 h -0.45 c -0.38,-2.22 -0.84,-2.8 -1.85,-2.8 h -4.4 v 12.48 0 z"
     id="path271"
     style="fill:#05325a;fill-opacity:1" />
  <path
     class="cls-2"
     d="m 226,123.22 c 0.81,-1.39 0.33,-1.82 -1.29,-1.82 v -0.48 h 5.71 v 0.48 a 3.5,3.5 0 0 0 -3.16,2 l -4.2,7.1 v 3.79 c 0,1.34 0.48,1.87 2,1.87 h 0.33 v 0.48 h -7 v -0.48 H 219 c 1.57,0 2,-0.58 2,-1.82 v -3.56 l -4.5,-7 c -1.24,-1.95 -1.82,-2.3 -3.46,-2.35 v -0.48 h 6.72 v 0.48 c -2,0 -2.1,0.48 -1.34,1.64 l 4,6.24 3.56,-6.07 v 0 z"
     id="path273"
     style="fill:#05325a;fill-opacity:1" />
  <path
     class="cls-2"
     d="m 95,150.33 c -4.45,0 -6.22,4.15 -6.22,7.18 0,4.73 3.21,8.06 7.28,8.06 4.07,0 6.09,-3.64 6.09,-7.23 0,-4.7 -3,-8 -7.15,-8 v 0 z m 0.53,15.87 c -5,0 -9.12,-3.18 -9.12,-7.91 0,-5 3.87,-8.59 9.25,-8.59 4.78,0 8.87,3.26 8.87,7.81 a 8.7,8.7 0 0 1 -9,8.69 z"
     id="path275"
     style="fill:#05325a;fill-opacity:1" />
  <path
     class="cls-2"
     d="m 119.88,159.76 h -0.43 c -0.05,-1.47 -0.58,-1.92 -1.8,-1.92 H 113 v 5.54 c 0,1.41 0.3,1.95 2.2,1.95 v 0.48 H 109 v -0.48 c 1.57,-0.1 1.84,-0.43 1.84,-2.48 v -9.91 c 0,-1.62 -0.13,-2.35 -1.89,-2.38 v -0.48 h 11.32 v 3 h -0.43 c 0,-1.47 -0.53,-2.07 -2.1,-2.07 H 113 v 5.94 h 5 c 0.93,0 1.39,-0.53 1.47,-1.62 h 0.43 v 4.45 0 z"
     id="path277"
     style="fill:#05325a;fill-opacity:1" />
  <path
     class="cls-2"
     d="m 141,163.47 c 0,1.37 0.46,1.85 2,1.85 h 0.94 v 0.48 h -8 v -0.48 h 0.93 c 1.54,0 2,-0.48 2,-1.85 V 151 h -4.4 c -1,0 -1.47,0.58 -1.84,2.8 h -0.45 l 0.4,-4.09 h 0.48 a 0.38,0.38 0 0 0 0.28,0.3 1.66,1.66 0 0 0 0.51,0.07 H 146 a 0.69,0.69 0 0 0 0.78,-0.38 h 0.48 l 0.4,4.09 h -0.45 c -0.38,-2.22 -0.83,-2.8 -1.84,-2.8 H 141 Z"
     id="path279"
     style="fill:#05325a;fill-opacity:1" />
  <path
     class="cls-2"
     d="m 164.24,160.11 h -0.48 c -0.2,-1.8 -0.68,-2 -1.72,-2 h -4.27 v 5.38 c 0,1.16 0.43,1.39 1.36,1.39 H 163 c 1.77,0 2.3,-0.68 2.93,-2.86 h 0.46 L 166,165.8 h -13.41 v -0.48 h 0.71 c 2,0 2.38,-0.56 2.38,-2.07 v -10.67 c 0,-1.42 -0.33,-2 -2,-2 h -0.58 v -0.48 h 12.13 l 0.2,3.51 H 165 c -0.33,-2.15 -1,-2.6 -1.87,-2.6 h -5.33 v 6.22 h 4.52 c 0.91,0 1.34,-0.43 1.47,-1.9 h 0.48 v 4.8 0 z"
     id="path281"
     style="fill:#05325a;fill-opacity:1" />
  <path
     class="cls-2"
     d="m 186.36,154.22 a 5.9,5.9 0 0 0 -5.76,-3.89 c -4.22,0 -6.85,3.06 -6.85,7.31 0,4.57 3.29,7.94 7.13,7.94 a 6.7,6.7 0 0 0 6.17,-3.74 h 0.48 a 17.28,17.28 0 0 1 -1.62,3.69 c -1.62,-0.23 -2.73,0.68 -5.71,0.68 -5.13,0 -8.82,-3.39 -8.82,-8.06 0,-4.9 3.79,-8.44 9.07,-8.44 3.18,0 4.55,1 5.33,1 a 0.52,0.52 0 0 0 0.46,-0.15 h 0.38 l 0.23,3.67 h -0.48 z"
     id="path283"
     style="fill:#05325a;fill-opacity:1" />
  <path
     class="cls-2"
     d="m 195.5,158.29 v 4.8 c 0,1.64 0.33,2.22 2,2.22 h 0.08 v 0.48 h -6.34 v -0.48 h 0.15 c 1.49,0 2,-0.4 2,-1.85 v -11.11 c 0,-1.31 -0.43,-1.69 -1.82,-1.8 v -0.48 h 6 v 0.48 c -1.79,0 -2.1,0.48 -2.1,2.43 v 4.4 h 9.91 v -5 c 0,-1.34 -0.43,-1.85 -2,-1.85 h -0.48 v -0.48 h 6.5 v 0.48 c -1.52,0.05 -1.92,0.51 -1.92,2.07 v 10.49 c 0,1.79 0.51,2.2 2,2.2 h 0.25 v 0.48 h -7.15 v -0.48 h 0.78 c 1.64,0 2,-0.58 2,-1.9 v -5.13 h -9.86 z"
     id="path285"
     style="fill:#05325a;fill-opacity:1" />
  <path
     class="cls-2"
     d="m 230.71,166 -13.09,-13.7 v 10.84 c 0,1.82 0.4,2.2 2.55,2.2 v 0.48 h -5.86 v -0.48 h 0.1 c 1.57,0 2.07,-0.53 2.07,-1.69 v -12.46 a 3.7,3.7 0 0 0 -2.12,-0.63 v -0.48 h 4 l 11.91,12.41 v -10.06 c 0,-1.54 -0.46,-1.82 -2.48,-1.87 v -0.48 h 5.91 v 0.48 c -1.9,0 -2.3,0.33 -2.3,1.31 V 166 h -0.66 z"
     id="path287"
     style="fill:#05325a;fill-opacity:1" />
  <path
     class="cls-2"
     d="m 245.55,150.33 c -4.45,0 -6.22,4.15 -6.22,7.18 0,4.73 3.21,8.06 7.28,8.06 4.07,0 6.09,-3.64 6.09,-7.23 0,-4.7 -3,-8 -7.15,-8 v 0 z m 0.53,15.87 c -5,0 -9.13,-3.18 -9.13,-7.91 0,-5 3.87,-8.59 9.25,-8.59 4.78,0 8.87,3.26 8.87,7.81 a 8.7,8.7 0 0 1 -9,8.69 v 0 z"
     id="path289"
     style="fill:#05325a;fill-opacity:1" />
  <path
     class="cls-2"
     d="m 269.23,165.8 h -11.3 v -0.48 h 0.83 c 1.16,0 1.59,-0.38 1.59,-1.67 v -11.2 c 0,-1.34 -0.4,-1.9 -2,-1.9 H 258 v -0.48 h 7.45 v 0.48 h -0.93 c -1.64,0 -2.07,0.18 -2.07,1.74 V 164 a 0.82,0.82 0 0 0 1,0.93 h 3.72 c 1.49,0 1.95,-0.58 3.54,-2.78 h 0.46 l -1.95,3.69 v 0 z"
     id="path291"
     style="fill:#05325a;fill-opacity:1" />
  <path
     class="cls-2"
     d="m 282.82,150.33 c -4.45,0 -6.22,4.15 -6.22,7.18 0,4.73 3.21,8.06 7.28,8.06 4.07,0 6.09,-3.64 6.09,-7.23 0,-4.7 -3,-8 -7.15,-8 v 0 z m 0.53,15.87 c -5,0 -9.13,-3.18 -9.13,-7.91 0,-5 3.87,-8.59 9.25,-8.59 4.78,0 8.87,3.26 8.87,7.81 a 8.7,8.7 0 0 1 -9,8.69 v 0 z"
     id="path293"
     style="fill:#05325a;fill-opacity:1" />
  <path
     class="cls-2"
     d="m 311,164.61 a 17,17 0 0 1 -6.77,1.59 7.8,7.8 0 0 1 -8.11,-8 8.42,8.42 0 0 1 8.88,-8.5 21.46,21.46 0 0 1 5,0.86 0.89,0.89 0 0 0 0.58,-0.18 h 0.35 v 4.1 h -0.51 a 4.82,4.82 0 0 0 -5.18,-4.15 c -4.45,0 -6.72,3.69 -6.72,7.76 0,5.18 3.64,7.48 6.55,7.48 a 8.53,8.53 0 0 0 3.87,-1 v -3.18 c 0,-1.44 -0.51,-1.92 -2,-1.92 H 306 v -0.45 h 6.82 v 0.45 c -1.26,0.08 -1.77,0.51 -1.77,1.59 v 3.51 0 z"
     id="path295"
     style="fill:#05325a;fill-opacity:1" />
  <g
     class="cls-3"
     clip-path="url(#clip-path)"
     id="g301"
     style="fill:#05325a;fill-opacity:1">
    <path
       class="cls-2"
       d="m 328.37,152.38 c 0.81,-1.39 0.33,-1.82 -1.29,-1.82 v -0.48 h 5.71 v 0.48 a 3.5,3.5 0 0 0 -3.16,2 l -4.2,7.1 v 3.79 c 0,1.34 0.48,1.87 2,1.87 h 0.33 v 0.48 h -7 v -0.48 h 0.48 c 1.57,0 2,-0.58 2,-1.82 v -3.56 l -4.5,-7 c -1.24,-1.95 -1.82,-2.3 -3.46,-2.35 v -0.48 H 322 v 0.48 c -2,0 -2.1,0.48 -1.34,1.64 l 4,6.24 3.56,-6.07 v 0 z"
       id="path297"
       style="fill:#05325a;fill-opacity:1" />
    <path
       class="cls-2"
       d="m 377.48,91.49 c -13.12,13.79 -17.13,31.84 -10.57,43 0,0 -33.77,15.28 -65.71,1.35 -33.63,-14.66 -61.26,5.8 -61.26,5.8 v -8.25 c 28.39,-6.37 24,-15.12 24.69,-45.81 V 43.25 c 0,-30.89 -0.52,-31.13 -24.33,-32.83 V 3.9 c 0,0 13.59,0 36.34,0 22.75,0 34.94,0 34.94,0 v 6.52 c -24.38,1.7 -24.89,1.94 -24.89,32.83 0,0 -0.13,23.21 0,44.95 0.13,21.74 0.42,30.21 11.64,38.92 8.11,6.3 16.92,7.83 25.54,7.94 8.62,0.11 22,-3.95 28.81,-11.21 a 42.14,42.14 0 0 0 9,-14.17 177,177 0 0 0 7.21,-19.22 l 6.88,0.8 1.73,0.24 v 0 z"
       id="path299"
       style="fill:#05325a;fill-opacity:1" />
  </g>
  <path
     class="cls-2"
     d="m 244.37,87.5 a 1.69,1.69 0 1 0 1.69,-1.69 1.7,1.7 0 0 0 -1.69,1.69 z m 4.11,0 a 2.41,2.41 0 1 1 -2.41,-2.41 2.42,2.42 0 0 1 2.41,2.41 z"
     id="path303"
     style="fill:#05325a;fill-opacity:1" />
  <metadata
     id="metadata427">
    <rdf:RDF>
      <cc:Work
         rdf:about="">
        <dc:title>ltu_logo_eng</dc:title>
      </cc:Work>
    </rdf:RDF>
  </metadata>
</svg>
